<?xml version="1.0" encoding="UTF-8"?>
<svg id="Layer_1" data-name="Layer 1" xmlns="http://www.w3.org/2000/svg" viewBox="0 0 3652.698 4085.521">
  <path d="M1694.052,3762.816c73.629,25.838,78.472,89.015,67.493,152.565-25.778,108.646-136.436,76.714-226.11,81.708l-.34-426.997c44.202-.412,88.708-3.032,131.606,2.771,53.863,5.113,84.952,42.98,88.208,94.341,2.767,43.633-12.412,79.733-60.856,95.611ZM1666.054,3639.543c-9.57-12.908-30.555-13.638-44.211-8.8l.736,103.231c7.832,7.666,25.72,3.816,34.823-2.138,23.086-15.098,21.977-74.322,8.653-92.294ZM1674.353,3915.015c11.008-27.234,8.704-57.184,3.318-83.396-5.456-26.554-31.245-41.83-55.874-34.216l.191,136.328c17.072,4.876,44.008,1.959,52.365-18.716Z" fill="#056957"/>
  <path d="M3090.698,3907.839c-18.09-3.916-35.633-1.845-54.877-1.277l-17.491,90.847-85.898-.985,92.287-426.743,76.729.457,91.976,426.904-85.785-.616-16.94-88.587ZM3084.246,3851.028l-20.6-149.343-22.333,148.95c14.215,3.264,27.476,2.938,42.933.393Z" fill="#056957"/>
  <path d="M2419.58,3938.505c21.401,3.779,42.326,11.296,55.347,27.803,15.298,19.394,12.183,46.524,2.282,69.58-23.223,54.076-125.499,46.672-171.795,34.13-16.125-4.368-32.742-14.788-38.228-30.521-10.024-28.745,5.441-55.512,26.837-75.928-9.753-8.719-26.714-14.433-24.622-27.414,3.219-19.979,19.351-33.317,29.825-51.34-34.518-60.046-34.657-167.212,31.766-196.706,33.656-14.945,64.245-6.85,94.465,7.164,19.064-5.169,43.528-22.204,67.486-13.094-1.948,16.015-.183,37.767-7.978,53.876-6.65,5.486-22.152,2.17-30.104,11.111,11.048,34.444,12.72,71.403-1.765,105.306-17.355,40.623-58.546,61.998-101.507,53.545-7.193-1.415-10.95,1.111-12.281,4.703-3.119,8.414,1.58,13.892,9.564,15.301l70.708,12.484ZM2368.313,3736.955c-4.734.713-10.715,3.801-12.478,10.222-6.396,23.294-12.345,97.699,12.341,99.076,27.715,1.546,26.067-113.204.138-109.298ZM2407.243,4000.926c-5.61-18.93-48.825-22.989-68.116-21.353-6.219,5.99-17.064,26.901-7.843,33.219,14.388,9.858,85.346,19.809,75.96-11.866Z" fill="#056957"/>
  <path d="M2149.256,3981.478c-17.743,17.795-40.417,28.146-66.163,20.549-21.293-6.284-44.025-28.037-44.213-55.066l-1.29-186.142c-.288-41.562,23.413-78.224,62.105-80.502,19.71-1.16,35.526,9.063,52.601,23.738l1.818-134.361,79.705.667.015,426.692-77.362-.384c-3.378-.017-1.519-8.525-7.217-15.192ZM2135.947,3942.39c7.366-2.852,17.307-10.615,17.328-19.591l.369-161.019c-3.424-8.552-9.159-15.934-17.801-19.107-9.045-3.32-15.739,2.801-17.352,11.657l.013,175.993c1.694,8.74,7.786,15.806,17.444,12.067Z" fill="#056957"/>
  <path d="M3536.165,4085.521l-79.962-.31-.103-397.241c26.065-1.631,50.346-1.45,76.592-.427,5.09.198,2.734,11.018,6.307,15.592,14.231-12.37,29.103-22.349,46.308-22.823,39.852-1.098,67.65,36.962,67.39,76.465l-1.251,189.929c-.177,26.843-22.397,48.173-43.111,54.809-26.294,8.424-50.369-1.315-70.441-23.266l-1.728,107.272ZM3570.329,3935.945c1.899-64.422,2.31-126.018-.254-188.256-.284-6.887-18.015-7.44-20.122-2.926-1.806,3.869-12.314,6.471-12.352,13.884l-.851,164.881c-.047,9.053,9.159,12.867,12.471,16.706s20.843,4.687,21.108-4.289Z" fill="#056957"/>
  <path d="M3298.966,4085.521l-79.962-.31-.103-397.241c26.064-1.63,50.344-1.451,76.585-.426,5.081.198,2.737,11.02,6.315,15.591,14.229-12.37,29.102-22.347,46.306-22.822,39.844-1.101,67.65,36.96,67.39,76.465l-1.253,189.929c-.177,26.837-22.404,48.179-43.108,54.811-26.298,8.423-50.369-1.315-70.443-23.267l-1.728,107.272ZM3333.129,3935.945c1.899-64.422,2.311-126.024-.255-188.263-.283-6.876-18.015-7.432-20.117-2.916-1.802,3.871-12.318,6.478-12.356,13.885l-.85,164.879c-.047,9.047,9.163,12.865,12.474,16.704,3.311,3.839,20.839,4.693,21.104-4.288Z" fill="#056957"/>
  <path d="M353.238,3996.655l-.484-239.942c-.011-5.482-2.447-10.925-5.193-13.082-10.168-7.987-28.805,11.496-28.828,15.72l-1.264,237.922-79.9-.438.011-426.523,79.555-.27,2.065,135.087c23.885-17.422,45.883-30.663,72.574-22.427,21.495,6.633,40.094,30.719,40.204,55.128l1.169,259.441-79.91-.617Z" fill="#056957"/>
  <path d="M1997.349,3687.284l.585,309.024-78.823.947c-3.325-8.552-.447-15.909-4.258-23.261-19.465,20.559-44.048,36.465-71.965,28.259-23.66-6.955-40.598-32.975-40.649-58.567l-.509-256.055,79.961-.274.853,240.614c.022,6.19,2.491,14.611,9.579,15.148,7.233.548,24.04-8.498,24.103-17.851l1.593-237.803,79.53-.182Z" fill="#056957"/>
  <path d="M695.452,3970.892c-20.553-47.267-6.861-102.08,32.787-132.161,22.451-17.034,46.204-27.229,72.819-38.016,2.638-16.793,7.898-59.661-15.875-59.169-8.459.175-16.548,5.991-17.093,15.957l-1.846,33.799-76.631-.474c-1.796-59.96,25.102-101.732,87.541-110.059,50.354-6.715,104.653,26.851,104.911,80.008l.622,128.164c.18,37.024,1.743,71.242,10.4,108.124l-72.99-.593-8.313-25.945c-11.203,22.782-30.557,33.455-56.027,34.095-24.53.616-49.103-7.966-60.306-33.731ZM801.733,3854.526c-26.149,18.613-45.568,52.46-32.352,83.295,3.736,8.717,18.53,5.398,23.245,1.516,17.857-14.704,8.728-52.715,9.107-84.812Z" fill="#056957"/>
  <path d="M581.799,3929.454l3.037-47.708,77.055.076c.242,19.112,2.622,37.382-1.969,55.705-10.737,42.858-50.067,67.614-94.92,66.923-42.118-.65-87.792-27.641-91.254-73.148-4.219-55.456-1.972-111.147-.747-165.685,1.249-55.624,44.781-87.002,96.193-85.947,48.659.998,85.528,28.694,91.352,79.079,3.381,29.256,1.653,59.902,1.549,90.744l-108.754.519c1.344,25.352-9.678,87.889,10.965,93.129,7.146,1.814,16.814-3.035,17.492-13.685ZM582.885,3803.864c-2.358-24.575,6.012-61.748-15.519-61.99-22.645-.254-13.138,41.358-14.789,62.407,9.477,3.744,21.048,5.238,30.308-.417Z" fill="#056957"/>
  <path d="M2609.872,3928.753l1.751-46.951,77.222-.017c1.323,21.422,3.799,43.037-3.373,63.383-14.342,40.69-54.824,61.56-97.909,59.039-42.475-2.485-84.694-31.801-86.808-76.999-2.571-54.975-2.257-109.9.17-163.488,2.445-53.98,43.947-84.299,94.152-84.045,48.804.247,87.298,27.246,92.973,78.25,3.297,29.635,2.251,60.674,1.119,91.601l-108.73.549c2.472,24.206-10.009,91.818,12.969,93.322,7.33.48,16.076-4.223,16.465-14.645ZM2610.574,3805.932c-1.782-22.677,7.447-66.222-16.987-64.044-21.071,1.879-11.96,45.011-13.141,63.893,10.892,1.256,19.211,2.358,30.128.151Z" fill="#056957"/>
  <path d="M1349.992,3928.753l1.751-46.951,77.222-.017c1.323,21.422,3.799,43.037-3.373,63.383-14.342,40.69-54.824,61.56-97.91,59.039-42.474-2.485-84.695-31.803-86.808-76.998-2.57-54.976-2.257-109.901.171-163.489,2.445-53.982,43.944-84.3,94.152-84.044,48.802.249,87.299,27.247,92.973,78.248,3.297,29.637,2.252,60.675,1.119,91.602l-108.729.549c2.472,24.206-10.009,91.818,12.969,93.322,7.33.48,16.076-4.223,16.465-14.645ZM1350.695,3805.932c-1.78-22.652,7.44-66.225-16.987-64.044-21.073,1.881-11.96,45.007-13.141,63.893,10.892,1.256,19.21,2.358,30.129.151Z" fill="#056957"/>
  <path d="M149.634,3996.575l-86.938.358-.418-360.83-60.965-1.748c-2.151-20.161-1.092-39.08-.759-63.916l209.025-1.182c3.565,21.556,1.793,42.95.888,64.978l-60.797,1.889-.036,360.45Z" fill="#026b55"/>
  <path d="M2855.116,3937.359c1.183,22.013-1.814,39.815-4.086,59.4-21.577,5.299-42.555,5.779-63.95,2.676-45.494-6.598-55.651-55.479-55.753-95.041l-.416-161.891-22.027-1.934-.236-52.627,21.995-1.898.955-100.137,79.25-.644,1.055,99.673c12.355,4.992,24.961-.302,37.947,3.425,1.225,17.434.802,34.187.231,52.12l-38.099,1.734.019,173.933c.001,12.064,9.275,19.409,20.557,19.102,6.211-.169,18.733-2.47,22.557,2.108Z" fill="#056957"/>
  <path d="M1056.907,3934.786c.66,20.053-1.69,40.194-3.862,61.157-17.267,6.456-34.248,5.06-52.14,4.932-57.075-.408-67.918-54.64-68.185-100.6l-.915-157.503-20.557-2.66c-1.578-16.293-2.756-36.094.724-51.606,3.986-3.128,19.309,1.017,19.425-4.93l1.919-98.31,79.108.482.967,100.633,37.947,1.584c.644,17.989,1.031,34.535-.183,52.652l-38.132,1.99-.03,169.51c-.002,8.996,3.945,18.942,12.394,21.486,8.868,2.67,16.395.701,31.521,1.184Z" fill="#056957"/>
  <path d="M1165.48,3996.827l-79.146-.227-.003-308.931,77.113-.487,4.915,20.531c15.367-22.351,38.548-31.336,61.689-20.721l-4.742,65.057c-9.032.74-16.757-.679-26.336-1.026-18.281-.663-32.714,12.847-32.777,31.618l-.714,214.185Z" fill="#056957"/>
  <g>
    <path d="M2632.802,3323.454l-181.449,16.123c-108.431,9.635-213.733,13.124-322.464,17.059l-121.164,4.385-403.649-.24c-53.633-.032-105.344-8.945-148.224-7.158-36.24,1.51-71.255.458-106.39-7.808-29.632,3.837-58.014-.011-87.68-2.363l-222.424-17.63c-238.425-18.899-474.739-42.021-705.145-103.161l-151.353-40.163c-36.884-9.787-70.483-25.209-103.537-43.218-25.693-13.998-39.996-36.564-39.996-67.911l.031-2727.714c0-39.637,21.667-70.319,54.864-88.502,50.864-27.861,104.132-48.826,160.681-63.595l172.395-45.025c143.455-37.467,286.566-64.747,433.616-82.573l121.996-14.789,72.903-9.368c23.016-2.958,46.792-4.32,69.559-6.728l70.451-7.451,100.703-9.016c34.292-3.07,67.406.691,101.052-9.123l221.516-3.292,81.967-3.646,279.988-.547,50.658,5.104,185.949,2.975c41.747,9.139,82.56,4.908,124.872,8.42,35.441,2.941,69.077,10.472,105.022,5.862,25.335,10.723,51.549,7.494,77.806,10.144l73.446,7.412c47.293,4.773,91.079,13.858,137.856,18.156,34.134,3.137,67.286,9.038,101.058,14.824l139.185,23.844,146.537,29.384c121.117,24.287,308.316,73.964,416.68,130.419,42.801,22.298,66.965,59.936,71.404,110.35l-.064,2716.003c0,26.002-6.023,43.956-27.36,57.974-25.915,17.025-54.539,28.648-85.696,37.865-131.139,38.794-334.204,80.075-469.866,98.548l-71.679,9.76-54.452,7.083-62.259,7.708-73.732,8.548-69.89,7.401-63.727,5.669ZM433.971,1780.858c-67.159,56.015-114.502,75.639-201.311,111.133,145.433,101.911,249.526,227.451,294.207,402.065l16.614,64.929c14.874,58.13,22.396,116.541,34.741,175.061,3.255,15.428,13.675,24.963,30.409,24.96l360.901-.058c9.775-.002,15.923-6.982,18.896-11.992,4.478-7.546-.741-17.644-5.427-25.231-24.926-40.359-51.838-77.727-73.952-119.914-26.09-49.77-52.027-97.277-71.146-150.237-30.199-83.654-53.932-182.657-61.968-271.722-3.796-42.071-4.402-164.877-1.02-206.224,7.856-96.039,40.678-183.387,67.452-276.408,8.943-6.599,9.966-18.923,15.447-29.553,9.802-19.013,63.548-114.321,78.938-114.659,19.102-.42,18.943,47.217,6.515,75.315-18.841,42.598-35.405,83.509-49.698,128.29-32.631,83.518-52.407,167.262-62.662,256.934-21.175,185.153,28.975,398.712,118.762,563.007,77.553,141.91,156.349,238.823,283.854,339.038,138.71,109.023,298.443,180.52,470.657,217.122,49.429,10.506,94.192,21.82,144.624,22.101,74.532.415,147.148,4.296,221.263-4.03l53.371-5.995,52.364-7.684c50.243-7.373,96.334-20.036,145.827-33.457,118.643-32.171,230.181-81.808,333.386-149.144,72.377-47.222,134.132-106.067,186.872-173.032,10.238-12.999,14.998-21.571,33.694-22.108,63.844-1.836,129.101,3.443,192.746-2.815,22.629-5.733,20.418-41.429,23.143-59.131,24.27-157.65,24.134-195.741,92.715-344.852,12.508-27.197,30.901-51.519,48.367-75.77,21.005-29.166,114.582-125.48,143.358-151.534,12.005-10.87,35.023-13.709,36.018-33.49l-125.423-66.79c-56.788-30.241-130.863-142.011-165.133-177.398-7.997-8.258-11.799-19.017-13.11-28.77,12.321-47.871,33.82-92.598,50.005-141.296,19.495-58.656,36.721-115.868,62.109-170.082,10.52,16.435,15.558,35.276,24.07,54.905,37.285,85.987,84.565,164.535,140.891,239.261,13.222,17.541,56.907,79.897,76.594,68.048,5.335-3.211,8.624-10.71,4.683-17.946l-23.244-42.667-63.289-122.245c-45.035-86.986-82.625-204.886-119.849-292.318,4.934-17.826,5.8-36.875,14.046-55.866,8.51-19.6,14.336-40.152,21.072-60.62,4.382-13.315,1.464-26.033-9.968-33.967l-88.889-61.685c-61.147-42.434-109.976-96.509-158.554-152.979-7.6-8.835-24.035-19.079-34.451-12.559-10.686-10.127-12.657-21.846-16.858-37.446-47.608-176.817-84.342-353.91-109.083-534.82-1.227-8.974-10.748-14.479-16.116-14.78-30.875-1.729-9.763,73.68-7.887,108.187,2.738,50.362,8.8,98.326,14.547,148.509l6.26,54.656,8.905,58.385,30.403,167.962c5.366,29.645,13.742,56.969,16.365,85.191-6.612,12.092-22.136,17.242-31.18,26.74l-66.138,23.531c-50.472,17.958-103.879,20.396-155.916,20.794-28,.214-57.718-8.6-83.727-21.987-48.935-25.189-97.632-42.915-151.29-56.079-53.809-13.202-104.839-28.863-160.052-37.327-53.644-8.224-105.997-18.49-160.704-20.578-68.564-2.618-133.472-7.248-202.749-4.456-172.778,6.963-339.574,49.432-497.428,118.818-99.728,43.836-187.897,101.087-272.602,167.837-6.309,4.971-14.916-.895-15.187-5.71-.19-3.372-.136-10.974,3.675-14.925,37.173-38.539,71.621-77.542,113.649-112.027,129.563-106.308,255.56-163.081,418.117-202.495,48.304-11.712,96.705-17.166,145.986-24.28,37.25-5.377,74.291,1.578,111.946.082,99.883-3.969,245.018,21.286,337.494,56.916,7.88,3.036,16.667.686,20.207-3.251,4.744-5.276,5.714-16.375.969-22.953-26.649-36.944-57.927-67.712-94.425-95.52-60.772-46.303-122.798-85.992-192.104-119.486l-355.322-171.719-227.392-118.951c-98.044-51.288-189.019-109.042-281.638-168.842-7.041-4.546-17.351-5.466-23.111-1.329-3.724,2.675-8.738,9.153-8.482,17.42,4.604,148.661-1.299,296.397-30.89,443.252-46.589,231.214-126.054,450.27-233.9,658.659-37.04,71.572-68.932,140.94-113.283,207.788l-115.961,174.781c-57.262,86.307-114.024,135.937-174.615,213.512ZM354.431,1546.681c64.652-107.758,114.681-219.086,155.255-338.217,34.75-102.03,63.645-201.248,91.163-305.361,24.921-94.287,41.656-186.953,54.562-283.93,14.207-106.749,37.409-286.923,30.391-389.091-.619-9.01-5.666-14.776-13.386-15.145-23.814-1.138-23.556,65.811-27.386,91.979l-26.814,183.154c-20.517,140.142-89.561,416.077-132.858,553.723-66.208,210.486-150.881,410.911-255.897,603.8,3.664,88.89,116.188-86.277,124.969-100.912ZM3115.568,692.164c-35.944,47.757-80.704,101.807-28.336,158.013,30.8,33.057,64.879,61.176,98.123,92.063,20.758,19.286,40.278,36.216,64.891,51.632,31.843,19.944,18.453,23.645,78.904,6.169,32.751,136.817,42.157,290.545,98.663,422.178,2.66,6.196,6.727,10.285,12.722,9.7,17.327-1.689,15.82-32.447,13.547-43.078-13.09-61.225-22.776-121.027-30.386-183.065l-11.114-90.607-19.226-150.461c-.455-3.562-2.552-5.822-3.959-7.135,29.228-35.646,43.93-77.209,45.041-124.837,1.481-63.505-26.001-113.597-74.067-155.779.774-14.712-3.002-29.498-4.118-45.75l-7.746-112.799c-3.552-51.73-5.397-102.195-13.671-153.159-1.647-10.144-10.094-16.467-18.386-15.898-7.54.518-16.957,7.316-16.927,17.486l.35,118.498c.09,30.307-.691,59.526,2.104,90.544,2.213,24.558,2.781,48.493-2.454,70.491-13.076,4.52-27.031-.703-41.838-1.956-28.176-2.383-53.533,8.873-83.299,10.059-6.641-14.549-8.541-30.14-11.175-47.758l-30.114-201.392-13.08-120.937c-1.353-12.512-5.262-23.039-17.593-22.987-10.493.044-17.721,7.096-18.219,18.964-2.45,58.37,6.829,175.345,11.403,238.291l5.879,80.905c1.821,25.057,6.646,48.247,6.774,73.692.039,7.715,2.298,15.58,7.307,18.914ZM258.857,1431.409c48.496-154.4,72.289-347.211,84.289-509.489l10.626-143.697.729-256.507c.121-42.595-.267-82.408-3.821-124.585-1.358-16.12,4.527-76.567-24.271-72.926-6.851.866-17.825,8.203-18.166,18.862l-4.571,142.669-12.433,218.443-16.979,276.116-16.937,190.822-29.546,251.766c-1.184,10.091,6.971,20.447,13.145,21.383,7.456,1.13,15.352-4.632,17.936-12.857ZM342.179,2551.891c-6.359-25.345,6.924-45.474,6.354-69.044l-3.132-129.431-8.736-155.67-4.293-85.832c-1.205-24.083,2.304-93.212-29.592-94.688-24.005-1.111-34.942,37.435-34.934,56.74.021,49.218-1.344,97.16.24,146.496l2.636,82.076,7.429,155.318,9.001,93.056c1.556,16.087,16.657,32.322,33.562,30.882,11.48-.978,24.221-18.917,21.465-29.901ZM3385.045,2489.191c5.001-17.466,11.694-31.464,11.758-51.012l1.112-339.111c.062-18.807-11.838-72.753-37.933-71.098-21.442,1.36-23.577,43.215-24.231,60.556l-4.265,112.998-4.569,345.635c-.217,16.389-2.593,28.819,10.228,38.416,8.813,6.597,21.566,14.878,34.3,7.378,20.603-12.133,6.088-77.528,13.6-103.762ZM1119.088,2763.068c10.993-7.175,14.314-11.904,14.473-19.439.427-20.302-29.481-25.939-47.574-25.899l-442.133.964c-27.451-7.908-51.516-1.916-78.894-1.788l-360.812,1.687c-30.891.144-88.191-4.879-90.901,17.964-3.274,27.598,66.886,27.283,87.556,27.266l918.285-.756ZM2912.756,2763.416l572.524.774c18.839.025,51.456-6.728,49.485-27.833-1.87-20.03-46.728-18.173-68.551-18.422l-148.627-1.695c-45.276-.516-89.611-2.456-135.268-.376-30.348,1.383-58.852,1.436-89.455,2.001l-77.596,1.433c-65.281,1.206-183.469-5.69-241.023,3.594-11.684,1.885-20.058,9.9-18.969,20.838.65,6.523,9.513,15.66,19.695,16.449,45.619,3.537,87.892,3.169,137.785,3.236ZM3522.547,3057.036c14.232-10.843,13.376-28.089,1.411-38.591-10.633-9.333-22.285-19.841-38.7-19.853l-496.83-.366-215.255-.395-951.892.039-1515.129-.288-106.526.754c-20.292.144-40.913,7.796-53.275,23.652-9.812,12.585-4.056,29.002,7.453,38.257,15.549,12.503,32.503,15.611,55.026,15.592l1332.588-1.128,925.413-.173,1006.099.371c19.521.007,35.248-6.924,49.616-17.87Z" fill="#026b55"/>
    <path d="M3522.547,3057.036c-14.368,10.946-30.095,17.877-49.616,17.87l-1006.099-.371-925.413.173-1332.588,1.128c-22.523.019-39.478-3.089-55.026-15.592-11.51-9.256-17.265-25.673-7.453-38.257,12.362-15.855,32.983-23.508,53.275-23.652l106.526-.754,1515.129.288,951.892-.039,215.255.395,496.83.366c16.416.012,28.067,10.519,38.7,19.853,11.965,10.502,12.821,27.748-1.411,38.591Z" fill="#fafcfc"/>
    <path d="M354.431,1546.681c-8.781,14.636-121.305,189.802-124.969,100.912,105.015-192.889,189.689-393.314,255.897-603.8,43.296-137.646,112.341-413.581,132.858-553.723l26.814-183.154c3.831-26.167,3.573-93.117,27.386-91.979,7.72.369,12.767,6.136,13.386,15.145,7.018,102.167-16.184,282.341-30.391,389.091-12.906,96.977-29.641,189.643-54.562,283.93-27.518,104.114-56.413,203.331-91.163,305.361-40.574,119.131-90.603,230.458-155.255,338.217Z" fill="#194a33"/>
    <path d="M258.857,1431.409c-2.584,8.225-10.48,13.987-17.936,12.857-6.174-.936-14.329-11.292-13.145-21.383l29.546-251.766,16.937-190.822,16.979-276.116,12.433-218.443,4.571-142.669c.342-10.659,11.316-17.996,18.166-18.862,28.798-3.641,22.913,56.806,24.271,72.926,3.554,42.178,3.942,81.99,3.821,124.585l-.729,256.507-10.626,143.697c-12,162.277-35.794,355.089-84.289,509.489Z" fill="#194a33"/>
    <path d="M342.179,2551.891c2.756,10.983-9.985,28.922-21.465,29.901-16.905,1.441-32.006-14.794-33.562-30.882l-9.001-93.056-7.429-155.318-2.636-82.076c-1.585-49.337-.219-97.278-.24-146.496-.008-19.306,10.929-57.851,34.934-56.74,31.896,1.476,28.387,70.606,29.592,94.688l4.293,85.832,8.736,155.67,3.132,129.431c.57,23.57-12.712,43.7-6.354,69.044Z" fill="#194a33"/>
    <g>
      <path d="M1119.088,2763.068l-918.285.756c-20.67.017-90.83.332-87.556-27.266,2.71-22.843,60.01-17.819,90.901-17.964l360.812-1.687c27.378-.128,51.443-6.12,78.894,1.788l442.133-.964c18.094-.039,48.002,5.597,47.574,25.899-.159,7.535-3.479,12.264-14.473,19.439Z" fill="#fafcfc"/>
      <path d="M2912.756,2763.416c-49.893-.067-92.166.301-137.785-3.236-10.183-.79-19.046-9.926-19.695-16.449-1.089-10.938,7.284-18.953,18.969-20.838,57.554-9.284,175.743-2.388,241.023-3.594l77.596-1.433c30.603-.565,59.107-.619,89.455-2.001,45.657-2.08,89.992-.14,135.268.376l148.627,1.695c21.823.249,66.68-1.608,68.551,18.422,1.971,21.105-30.646,27.859-49.485,27.833l-572.524-.774Z" fill="#fafcfc"/>
    </g>
    <path d="M3385.045,2489.191c-7.512,26.234,7.003,91.629-13.6,103.762-12.734,7.499-25.486-.781-34.3-7.378-12.821-9.597-10.445-22.027-10.228-38.416l4.569-345.635,4.265-112.998c.654-17.341,2.789-59.195,24.231-60.556,26.096-1.655,37.995,52.291,37.933,71.098l-1.112,339.111c-.064,19.548-6.757,33.546-11.758,51.012Z" fill="#194a33"/>
    <path d="M3003.485,816.801c-23.028,14.414-46.152,32.804-73.463,35.844-2.623-28.222-10.999-55.546-16.365-85.191l-30.403-167.962-8.905-58.385-6.26-54.656c-5.747-50.183-11.809-98.147-14.547-148.509-1.876-34.507-22.988-109.915,7.887-108.187,5.368.301,14.889,5.805,16.116,14.78,24.741,180.911,61.475,358.003,109.083,534.82,4.2,15.6,6.172,27.319,16.858,37.446Z" fill="#194a33"/>
    <path d="M3220.374,1307.438c9.285-19.828,9.384-46.435,17.146-66.942,5.687-15.026,18.342-30.245,22.709-46.019,37.224,87.432,74.815,205.332,119.849,292.318l63.289,122.245,23.244,42.667c3.942,7.236.652,14.735-4.683,17.946-19.687,11.849-63.372-50.507-76.594-68.048-56.326-74.727-103.606-153.274-140.891-239.261-8.512-19.629-13.55-38.47-24.07-54.905Z" fill="#194a33"/>
    <path d="M3329.151,1000.041l60.246-42.468c1.407,1.313,3.504,3.573,3.959,7.135l19.226,150.461,11.114,90.607c7.61,62.038,17.296,121.84,30.386,183.065,2.273,10.631,3.78,41.388-13.547,43.078-5.995.585-10.062-3.505-12.722-9.7-56.506-131.633-65.912-285.361-98.663-422.178Z" fill="#194a33"/>
    <path d="M3174.386,654.473c-3.18,7.959-13.044,9.129-20.724,14.035l-38.094,23.656c-5.008-3.334-7.268-11.198-7.307-18.914-.128-25.445-4.954-48.635-6.774-73.692l-5.879-80.905c-4.574-62.947-13.853-179.922-11.403-238.291.498-11.868,7.726-18.92,18.219-18.964,12.331-.052,16.24,10.475,17.593,22.987l13.08,120.937,30.114,201.392c2.634,17.618,4.534,33.21,11.175,47.758Z" fill="#194a33"/>
    <path d="M3360.371,676.957c-19.945-9.208-42.86-14.279-60.849-30.588,5.235-21.998,4.666-45.933,2.454-70.491-2.795-31.018-2.014-60.237-2.104-90.544l-.35-118.498c-.03-10.17,9.387-16.968,16.927-17.486,8.292-.57,16.739,5.753,18.386,15.898,8.274,50.964,10.119,101.429,13.671,153.159l7.746,112.799c1.116,16.252,4.893,31.038,4.118,45.75Z" fill="#194a33"/>
    <g>
      <path d="M2898.842,879.385c3.851,9.732,11.346,18.437,18.681,27.814,36.277,46.376,69.255,92.246,108.178,136.593,64.993,74.049,133.833,139.678,211.819,196.705-7.762,20.507-7.861,47.113-17.146,66.942-25.388,54.214-42.614,111.426-62.109,170.082-16.185,48.698-37.684,93.425-50.005,141.296-19.014,11.863-16.556,35.257-24.329,57.114l-255.533,718.535-41.576,5.928c-16.595,2.366-31.842,3.193-44.593-5.679.598-6.675,4.509-13.462,4.602-22.363l3.592-342.061-.21-303.074-.064-51.264.305-372.247c.007-8.172-5.456-23.632-12.517-24.906-18.366-3.314-36.564-3.819-53.423-3.643,3.26-22.455-2.661-45.08-3.222-69.001-.66-28.133-.453-54.085-3.593-81.875-1.609-14.242-3.763-28.789-3.819-42.971l-.52-131.658c-.038-9.603,4.561-17.933,3.429-25.942,52.037-.398,105.444-2.836,155.916-20.794l66.138-23.531Z" fill="#f9c819"/>
      <path d="M842.367,1497.22c-26.774,93.021-59.596,180.369-67.452,276.408-3.382,41.346-2.776,164.153,1.02,206.224,8.036,89.065,31.769,188.068,61.968,271.722,19.119,52.96,45.056,100.467,71.146,150.237,22.115,42.187,49.026,79.555,73.952,119.914,4.686,7.587,9.905,17.685,5.427,25.231-2.973,5.01-9.121,11.99-18.896,11.992l-360.901.058c-16.734.003-27.154-9.532-30.409-24.96-12.345-58.519-19.866-116.931-34.741-175.061l-16.614-64.929c-44.681-174.614-148.774-300.154-294.207-402.065,86.809-35.494,134.152-55.118,201.311-111.133,28.543-18.189,27.802-16.583,50.707-37.346l72.695-65.897c13.781-12.492,179.755-139.156,196.61-159.211,11.84-14.087,30.205-23.365,44.541-36.506,8.144-7.465,27.125-4.802,34.944.015,5.645,3.478,4.763,12.342,8.898,15.307Z" fill="#f9c819"/>
      <path d="M3299.523,646.37c17.988,16.309,40.904,21.38,60.849,30.588,48.066,42.182,75.549,92.274,74.067,155.779-1.111,47.628-15.813,89.191-45.041,124.837l-60.246,42.468c-60.452,17.476-47.061,13.775-78.904-6.169-24.613-15.416-44.133-32.345-64.891-51.632-33.244-30.887-67.323-59.006-98.123-92.063-52.368-56.206-7.608-110.256,28.336-158.013l38.094-23.656c7.679-4.906,17.544-6.076,20.724-14.035,29.765-1.186,55.122-12.443,83.299-10.059,14.807,1.253,28.762,6.475,41.838,1.956Z" fill="#fdfdfd"/>
      <path d="M3260.229,1194.477c-4.366,15.775-17.021,30.993-22.709,46.019-77.985-57.027-146.826-122.656-211.819-196.705-38.923-44.347-71.902-90.217-108.178-136.593-7.335-9.377-14.83-18.082-18.681-27.814,9.043-9.498,24.567-14.648,31.18-26.74,27.312-3.04,50.435-21.43,73.463-35.844,10.417-6.52,26.851,3.724,34.451,12.559,48.577,56.471,97.406,110.546,158.554,152.979l88.889,61.685c11.432,7.934,14.35,20.652,9.968,33.967-6.735,20.468-12.562,41.02-21.072,60.62-8.246,18.991-9.112,38.04-14.046,55.866Z" fill="#fdfdfd"/>
      <g>
        <path d="M2676.788,923.71c1.132,8.009-3.467,16.34-3.429,25.942l.52,131.658c.056,14.181,2.21,28.728,3.819,42.971,3.14,27.79,2.933,53.742,3.593,81.875.561,23.921,6.482,46.545,3.222,69.001l-255.052,2.667c-11.75.123-19.454,10.411-19.441,21.507l.303,267.103.487,809.355c.008,13.193,10.823,22.338,22.78,22.34l288.375.049c7.814.001,14.076-4.809,20.264-3.465,12.75,8.872,27.998,8.045,44.593,5.679l41.576-5.928,255.533-718.535c7.773-21.857,5.315-45.251,24.329-57.114,1.311,9.754,5.113,20.513,13.11,28.77,34.27,35.387,108.346,147.157,165.133,177.398l125.423,66.79c-.994,19.781-24.012,22.621-36.018,33.49-28.776,26.054-122.353,122.368-143.358,151.534-17.466,24.251-35.858,48.573-48.367,75.77-68.581,149.112-68.444,187.202-92.715,344.852-2.725,17.702-.514,53.398-23.143,59.131-63.644,6.258-128.902.979-192.746,2.815-18.696.538-23.457,9.109-33.694,22.108-52.739,66.966-114.495,125.81-186.872,173.032-103.205,67.336-214.744,116.973-333.386,149.144-49.493,13.421-95.584,26.084-145.827,33.457l-52.364,7.684-53.371,5.995c-74.115,8.326-146.731,4.445-221.263,4.03-50.433-.281-95.196-11.595-144.624-22.101-172.214-36.603-331.947-108.1-470.657-217.122-127.504-100.215-206.3-197.128-283.854-339.038-89.787-164.295-139.937-377.854-118.762-563.007,10.255-89.672,30.031-173.417,62.662-256.934,14.293-44.781,30.856-85.692,49.698-128.29,12.428-28.098,12.587-75.735-6.515-75.315-15.39.338-69.136,95.646-78.938,114.659-5.48,10.63-6.504,22.954-15.447,29.553-4.136-2.965-3.254-11.83-8.898-15.307-7.819-4.817-26.8-7.481-34.944-.015-14.336,13.141-32.701,22.419-44.541,36.506-16.855,20.054-182.829,146.718-196.61,159.211l-72.695,65.897c-22.905,20.763-22.164,19.157-50.707,37.346,60.591-77.575,117.353-127.205,174.615-213.512l115.961-174.781c44.351-66.848,76.243-136.215,113.283-207.788,107.846-208.389,187.311-427.445,233.9-658.659,29.591-146.855,35.494-294.592,30.89-443.252-.256-8.267,4.758-14.745,8.482-17.42,5.76-4.137,16.07-3.217,23.111,1.329,92.618,59.801,183.593,117.554,281.638,168.842l227.392,118.951,355.322,171.719c69.306,33.494,131.332,73.183,192.104,119.486,36.498,27.808,67.775,58.576,94.425,95.52,4.745,6.578,3.774,17.677-.969,22.953-3.54,3.937-12.327,6.287-20.207,3.251-92.476-35.63-237.611-60.886-337.494-56.916-37.655,1.496-74.696-5.459-111.946-.082-49.281,7.114-97.682,12.568-145.986,24.28-162.556,39.414-288.553,96.186-418.117,202.495-42.028,34.484-76.476,73.487-113.649,112.027-3.811,3.951-3.865,11.553-3.675,14.925.271,4.816,8.879,10.682,15.187,5.71,84.706-66.749,172.874-124,272.602-167.837,157.853-69.386,324.65-111.855,497.428-118.818,69.277-2.792,134.186,1.839,202.749,4.456,54.707,2.089,107.059,12.354,160.704,20.578,55.213,8.464,106.242,24.126,160.052,37.327,53.658,13.165,102.355,30.891,151.29,56.079,26.009,13.388,55.727,22.201,83.727,21.987ZM2783.742,2522.581c3.237-4.233,2.437-10.874.48-14.062-1.241-2.021-5.55-5.444-10.147-3.078-265.38,136.662-357.868,50.956-448.419,75.962-296.946,82.002-597.417,9.413-839.235-176.283-63.512-48.772-115.839-103.791-162.738-168.298-32.779-45.085-60.208-89.199-82.662-140.813-36.634-84.209-62.615-169.512-70.738-261.979-4.459-50.758-5.791-101.392.008-152.017l7.676-67.015c1.589-13.877,4.052-28.847,7.551-42.577l35.243-138.273c1.745-6.845,5.548-11.297,9.035-13.388,4.955-2.971,13.726-3.183,18.661,1.071,26.397,22.753,142.057,118.623,169.177,109.383,4.373-1.49,10.537-7.293,10.668-15.149,1.707-101.796.226-201.753,11.41-302.943l16.289-147.385c.758-6.861,1.537-13.939-3.192-17.673-3.248-2.564-9.513-8.844-16.959-6.911-102.958,26.736-204.969,51.921-304.623,89.492-18.872,7.115-37.813,6.415-55.504,7.082-24.22,14.09-44.814,35.987-70.572,49.29-25.573,13.208-45.347,34.783-66.677,53.386-10.509,9.166-17.656,21.741-20.396,35.342-2.431,12.065,5.385,21.77,17.565,22.356,63.78,3.067,127.547,17.231,181.643,50.699,7.658,4.738,13.281,13.128,14.268,19.184,1.076,6.606-1.93,14.333-7.076,20.125-82.345,92.677-133.357,219.73-150.307,342.546l-5.588,40.489c-7.65,55.432-6.237,111.762.342,167.402l6.628,56.055c20.982,177.449,138.021,387.464,266.804,513.833,76.752,75.314,159.718,137.719,255.882,187.306,110.446,56.951,228.373,95.912,351.677,113.986,76.809,11.259,150.77,19.393,228.11,13.566l86.53-6.52c213.903-16.117,485.705-119.632,619.187-294.193ZM2303.593,1597.26h-342.128v802.198h342.128v-802.198ZM1829.231,2397.761c14.138.061,23.065-13.101,23.129-25.833l2.45-485.404c.051-10.097-1.965-19.073-7.928-23.772s-15.51-5.998-24.69-5.977l-276.991.648c-9.552.022-31.642,4.483-31.624,17.08l.604,423.77c-.407,18.694,6.727,31.638,20.835,41.646l80.235,56.912,213.98.93Z" fill="#fdfdfd"/>
        <path d="M2783.742,2522.581c-133.482,174.562-405.284,278.077-619.187,294.193l-86.53,6.52c-77.34,5.827-151.301-2.307-228.11-13.566-123.305-18.074-241.231-57.035-351.677-113.986-96.165-49.587-179.13-111.992-255.882-187.306-128.783-126.369-245.822-336.384-266.804-513.833l-6.628-56.055c-6.579-55.64-7.992-111.97-.342-167.402l5.588-40.489c16.95-122.816,67.962-249.869,150.307-342.546,5.146-5.792,8.152-13.52,7.076-20.125-.986-6.057-6.609-14.446-14.268-19.184-54.096-33.468-117.863-47.632-181.643-50.699-12.179-.586-19.995-10.29-17.565-22.356,2.74-13.6,9.887-26.175,20.396-35.342,21.329-18.603,41.104-40.178,66.677-53.386,25.758-13.304,46.352-35.201,70.572-49.29,17.691-.667,36.632.033,55.504-7.082,99.654-37.572,201.665-62.756,304.623-89.492,7.446-1.934,13.711,4.347,16.959,6.911,4.729,3.733,3.951,10.811,3.192,17.673l-16.289,147.385c-11.183,101.19-9.703,201.146-11.41,302.943-.132,7.856-6.295,13.659-10.668,15.149-27.12,9.24-142.781-86.63-169.177-109.383-4.935-4.254-13.706-4.041-18.661-1.071-3.488,2.091-7.291,6.543-9.035,13.388l-35.243,138.273c-3.499,13.73-5.962,28.699-7.551,42.577l-7.676,67.015c-5.798,50.625-4.467,101.259-.008,152.017,8.124,92.468,34.104,177.77,70.738,261.979,22.454,51.614,49.883,95.728,82.662,140.813,46.899,64.506,99.226,119.526,162.738,168.298,241.818,185.696,542.289,258.285,839.235,176.283,90.551-25.006,183.038,60.7,448.419-75.962,4.596-2.367,8.906,1.057,10.147,3.078,1.957,3.187,2.757,9.829-.48,14.062Z" fill="#026b55"/>
        <path d="M2684.514,1275.156c16.859-.176,35.057.329,53.423,3.643,7.061,1.274,12.524,16.734,12.517,24.906l-.305,372.247.064,51.264.21,303.074-3.592,342.061c-.093,8.901-4.004,15.688-4.602,22.363-6.188-1.343-12.451,3.467-20.264,3.465l-288.375-.049c-11.957-.002-22.772-9.146-22.78-22.34l-.487-809.355-.303-267.103c-.013-11.096,7.691-21.385,19.441-21.507l255.052-2.667Z" fill="#026b55"/>
        <rect x="1961.464" y="1597.26" width="342.128" height="802.198" fill="#026b55"/>
        <path d="M1829.231,2397.761l-213.98-.93-80.235-56.912c-14.108-10.007-21.242-22.952-20.835-41.646l-.604-423.77c-.018-12.598,22.072-17.058,31.624-17.08l276.991-.648c9.18-.021,18.729,1.28,24.69,5.977s7.979,13.675,7.928,23.772l-2.45,485.404c-.064,12.732-8.991,25.894-23.129,25.833Z" fill="#026b55"/>
      </g>
    </g>
  </g>
</svg>